<svg version="1.1" id="Ebene_1" xmlns="http://www.w3.org/2000/svg" xmlns:xlink="http://www.w3.org/1999/xlink" x="0px" y="0px"
	 viewBox="0 0 21.7 49" style="enable-background:new 0 0 21.7 49;" xml:space="preserve">
<style type="text/css">
	.st0{fill:#8e8b7c;}
</style>
<path id="Layer_2" class="st0" d="M10.9,15.8C10.9,15.8,10.9,15.8,10.9,15.8c-3,0-5.4-2.4-5.4-5.4c0-2.8,4.8-9.4,5-9.7
	c0.1-0.1,0.2-0.2,0.4-0.2l0,0c0.2,0,0.3,0.1,0.4,0.2c0.2,0.3,5,6.9,5,9.7l0,0c0,1.4-0.6,2.8-1.6,3.8C13.6,15.2,12.3,15.8,10.9,15.8z
	 M10.9,1.9C9.4,4,6.5,8.5,6.5,10.4c0,2.4,2,4.4,4.4,4.4c0,0,0,0,0,0c1.2,0,2.3-0.5,3.1-1.3c0.8-0.8,1.3-1.9,1.3-3.1
	C15.2,8.5,12.4,4,10.9,1.9z M15.7,10.4L15.7,10.4L15.7,10.4z M10.6,42.5c-5.6,0-10.1-3.9-10.1-8.7v-3.6c0-0.1,0.1-0.3,0.2-0.4
	c0.1-0.1,0.3-0.1,0.4-0.1c4.3,0.7,7.3,2.4,8.9,5c2.2,3.5,1.1,7.3,1.1,7.4C11,42.4,10.8,42.5,10.6,42.5z M10.6,42L10.6,42L10.6,42z
	 M1.5,30.8v3c0,4.1,3.9,7.5,8.7,7.7c0.2-1,0.5-3.8-1-6.3C7.7,33,5.2,31.5,1.5,30.8z M11.1,42.5c-0.2,0-0.4-0.1-0.5-0.4
	c0-0.2-1.1-3.9,1.1-7.4c1.6-2.6,4.6-4.3,8.9-5c0.1,0,0.3,0,0.4,0.1c0.1,0.1,0.2,0.2,0.2,0.4v3.6C21.2,38.6,16.7,42.5,11.1,42.5z
	 M20.2,30.8c-3.7,0.7-6.2,2.2-7.7,4.5c-1.6,2.5-1.2,5.3-1,6.3c4.8-0.2,8.7-3.6,8.7-7.7V30.8z M10.6,33.1c-5.6,0-10.1-3.9-10.1-8.7
	v-3.6c0-0.1,0.1-0.3,0.2-0.4c0.1-0.1,0.3-0.1,0.4-0.1c4.3,0.7,7.3,2.4,8.9,5.1c2.2,3.5,1.1,7.3,1.1,7.4C11,32.9,10.8,33.1,10.6,33.1
	z M10.6,32.6L10.6,32.6L10.6,32.6z M1.5,21.3v3c0,4.1,3.9,7.5,8.7,7.7c0.2-1,0.5-3.8-1-6.3C7.7,23.6,5.2,22.1,1.5,21.3z M11.1,33.1
	c-0.2,0-0.4-0.1-0.5-0.4c0-0.2-1.1-3.9,1.1-7.4c1.6-2.6,4.6-4.3,8.9-5.1c0.1,0,0.3,0,0.4,0.1s0.2,0.2,0.2,0.4v3.6
	C21.2,29.2,16.7,33.1,11.1,33.1z M20.2,21.3c-3.7,0.7-6.2,2.2-7.7,4.5c-1.6,2.5-1.2,5.3-1,6.3c4.8-0.2,8.7-3.6,8.7-7.7V21.3z
	 M10.6,23.7C5,23.7,0.5,19.8,0.5,15v-3.6c0-0.1,0.1-0.3,0.2-0.4c0.1-0.1,0.3-0.1,0.4-0.1c4.3,0.7,7.3,2.4,8.9,5
	c2.2,3.5,1.1,7.2,1.1,7.4C11,23.6,10.8,23.7,10.6,23.7z M10.6,23.2L10.6,23.2L10.6,23.2z M1.5,12v3c0,4.1,3.9,7.5,8.7,7.7
	c0.2-1,0.5-3.7-1-6.2C7.8,14.2,5.2,12.7,1.5,12z M11.1,23.7c-0.2,0-0.4-0.1-0.5-0.4c0-0.2-1.1-3.9,1.1-7.4c1.6-2.6,4.6-4.3,8.9-5
	c0.1,0,0.3,0,0.4,0.1s0.2,0.2,0.2,0.4V15C21.2,19.8,16.7,23.7,11.1,23.7z M20.2,12c-3.7,0.7-6.3,2.2-7.7,4.5c-1.6,2.5-1.2,5.2-1,6.2
	c4.8-0.2,8.7-3.6,8.7-7.7V12z M11.4,48v-6c0-0.3-0.2-0.5-0.5-0.5s-0.5,0.2-0.5,0.5v6c0,0.3,0.2,0.5,0.5,0.5S11.4,48.3,11.4,48z"/>
</svg>
