<svg version="1.1" id="Ebene_1" xmlns="http://www.w3.org/2000/svg" xmlns:xlink="http://www.w3.org/1999/xlink" x="0px" y="0px"
	 viewBox="0 0 321 39.1" style="enable-background:new 0 0 321 39.1;" xml:space="preserve">
<style type="text/css">
	.st0{fill:#E7E4DB;}
</style>
<path id="Gruppe_36" transform="translate(60.5 -5042.435)" class="st0" d="M-52,5055.2c-2.5,0-4.5-2-4.5-4.5c0-2.3,3.7-7.4,4.1-8
	c0.1-0.1,0.2-0.2,0.4-0.2h0c0.2,0,0.3,0.1,0.4,0.2c0.4,0.6,4.1,5.7,4.1,8C-47.5,5053.1-49.5,5055.2-52,5055.2z M-52,5043.8
	c-1.3,1.8-3.5,5.4-3.5,6.9c0,1.9,1.6,3.5,3.5,3.5s3.5-1.6,3.5-3.5C-48.5,5049.2-50.7,5045.6-52,5043.8z M-52.1,5076.6
	c-4.6,0-8.4-3.2-8.4-7.2v-3c0-0.1,0.1-0.3,0.2-0.4c0.1-0.1,0.3-0.1,0.4-0.1c3.5,0.6,6,2,7.4,4.2c1.8,2.9,0.9,6,0.9,6.2
	C-51.7,5076.5-51.9,5076.6-52.1,5076.6z M-52.1,5076.1L-52.1,5076.1L-52.1,5076.1z M-59.5,5067v2.4c0,3.3,3.1,6,7,6.2
	c0.2-0.9,0.4-3-0.9-5C-54.5,5068.8-56.6,5067.6-59.5,5067z M-51.9,5076.6c-0.2,0-0.4-0.1-0.5-0.4c0-0.1-0.9-3.3,0.9-6.2
	c1.4-2.2,3.8-3.6,7.4-4.2c0.1,0,0.3,0,0.4,0.1c0.1,0.1,0.2,0.2,0.2,0.4v3C-43.5,5073.4-47.3,5076.6-51.9,5076.6z M-44.5,5067
	c-2.9,0.6-5,1.8-6.1,3.6c-1.2,2-1,4.1-0.8,5c3.9-0.2,7-2.9,7-6.2V5067z M-52.1,5069.1c-4.6,0-8.4-3.2-8.4-7.2v-3
	c0-0.1,0.1-0.3,0.2-0.4c0.1-0.1,0.3-0.1,0.4-0.1c3.5,0.6,6,2,7.4,4.2c1.8,2.9,0.9,6,0.9,6.2C-51.7,5068.9-51.9,5069.1-52.1,5069.1z
	 M-52.1,5068.6L-52.1,5068.6L-52.1,5068.6z M-59.5,5059.5v2.4c0,3.3,3.1,6.1,7,6.2c0.2-0.9,0.4-3-0.9-5
	C-54.5,5061.3-56.6,5060.1-59.5,5059.5z M-51.9,5069.1c-0.2,0-0.4-0.1-0.5-0.4c0-0.1-0.9-3.3,0.9-6.2c1.4-2.2,3.8-3.6,7.4-4.2
	c0.1,0,0.3,0,0.4,0.1c0.1,0.1,0.2,0.2,0.2,0.4v3C-43.5,5065.8-47.3,5069.1-51.9,5069.1z M-44.5,5059.5c-2.9,0.6-5,1.8-6.1,3.6
	c-1.2,2-1,4.1-0.9,5c3.9-0.2,7-2.9,7-6.2V5059.5z M-52.1,5061.5c-4.6,0-8.4-3.2-8.4-7.2v-3c0-0.1,0.1-0.3,0.2-0.4
	c0.1-0.1,0.3-0.1,0.4-0.1c3.5,0.6,6,2,7.4,4.2c1.8,2.9,0.9,6,0.9,6.1C-51.7,5061.4-51.9,5061.5-52.1,5061.5z M-52.1,5061L-52.1,5061
	L-52.1,5061z M-59.5,5051.9v2.4c0,3.3,3.1,6,7,6.2c0.2-0.8,0.4-3-0.8-5C-54.5,5053.7-56.6,5052.5-59.5,5051.9z M-51.9,5061.5
	c-0.2,0-0.4-0.1-0.5-0.4c0-0.1-0.9-3.3,0.9-6.1c1.4-2.2,3.8-3.6,7.4-4.2c0.1,0,0.3,0,0.4,0.1c0.1,0.1,0.2,0.2,0.2,0.4v3
	C-43.5,5058.3-47.3,5061.5-51.9,5061.5z M-44.5,5051.9c-2.9,0.6-5,1.8-6.1,3.6c-1.2,2-1,4.1-0.8,5c3.9-0.2,7-2.9,7-6.2V5051.9z
	 M-51.5,5081v-4.9c0-0.3-0.2-0.5-0.5-0.5s-0.5,0.2-0.5,0.5v4.9c0,0.3,0.2,0.5,0.5,0.5S-51.5,5081.3-51.5,5081z M-20,5055.2
	c-2.5,0-4.5-2-4.5-4.5c0-2.3,3.7-7.4,4.1-8c0.1-0.1,0.2-0.2,0.4-0.2h0c0.2,0,0.3,0.1,0.4,0.2c0.4,0.6,4.1,5.7,4.1,8
	C-15.5,5053.1-17.5,5055.2-20,5055.2z M-20,5043.8c-1.3,1.8-3.5,5.4-3.5,6.9c0,1.9,1.6,3.5,3.5,3.5s3.5-1.6,3.5-3.5
	C-16.5,5049.2-18.7,5045.6-20,5043.8z M-20.1,5076.6c-4.6,0-8.4-3.2-8.4-7.2v-3c0-0.1,0.1-0.3,0.2-0.4c0.1-0.1,0.3-0.1,0.4-0.1
	c3.5,0.6,6,2,7.4,4.2c1.8,2.9,0.9,6,0.9,6.2C-19.7,5076.5-19.9,5076.6-20.1,5076.6z M-20.1,5076.1L-20.1,5076.1L-20.1,5076.1z
	 M-27.5,5067v2.4c0,3.3,3.1,6,7,6.2c0.2-0.9,0.4-3-0.9-5C-22.5,5068.8-24.6,5067.6-27.5,5067z M-19.9,5076.6c-0.2,0-0.4-0.1-0.5-0.4
	c0-0.1-0.9-3.3,0.9-6.2c1.4-2.2,3.8-3.6,7.4-4.2c0.1,0,0.3,0,0.4,0.1c0.1,0.1,0.2,0.2,0.2,0.4v3
	C-11.5,5073.4-15.3,5076.6-19.9,5076.6z M-12.5,5067c-2.9,0.6-5,1.8-6.1,3.6c-1.2,2-1,4.1-0.8,5c3.9-0.2,7-2.9,7-6.2V5067z
	 M-20.1,5069.1c-4.6,0-8.4-3.2-8.4-7.2v-3c0-0.1,0.1-0.3,0.2-0.4c0.1-0.1,0.3-0.1,0.4-0.1c3.5,0.6,6,2,7.4,4.2
	c1.8,2.9,0.9,6,0.9,6.2C-19.7,5068.9-19.9,5069.1-20.1,5069.1z M-20.1,5068.6L-20.1,5068.6L-20.1,5068.6z M-27.5,5059.5v2.4
	c0,3.3,3.1,6.1,7,6.2c0.2-0.9,0.4-3-0.9-5C-22.5,5061.3-24.6,5060.1-27.5,5059.5z M-19.9,5069.1c-0.2,0-0.4-0.1-0.5-0.4
	c0-0.1-0.9-3.3,0.9-6.2c1.4-2.2,3.8-3.6,7.4-4.2c0.1,0,0.3,0,0.4,0.1c0.1,0.1,0.2,0.2,0.2,0.4v3
	C-11.5,5065.8-15.3,5069.1-19.9,5069.1z M-12.5,5059.5c-2.9,0.6-5,1.8-6.1,3.6c-1.2,2-1,4.1-0.9,5c3.9-0.2,7-2.9,7-6.2V5059.5z
	 M-20.1,5061.5c-4.6,0-8.4-3.2-8.4-7.2v-3c0-0.1,0.1-0.3,0.2-0.4c0.1-0.1,0.3-0.1,0.4-0.1c3.5,0.6,6,2,7.4,4.2
	c1.8,2.9,0.9,6,0.9,6.1C-19.7,5061.4-19.9,5061.5-20.1,5061.5z M-20.1,5061L-20.1,5061L-20.1,5061z M-27.5,5051.9v2.4
	c0,3.3,3.1,6,7,6.2c0.2-0.8,0.4-3-0.8-5C-22.5,5053.7-24.6,5052.5-27.5,5051.9z M-19.9,5061.5c-0.2,0-0.4-0.1-0.5-0.4
	c0-0.1-0.9-3.3,0.9-6.1c1.4-2.2,3.8-3.6,7.4-4.2c0.1,0,0.3,0,0.4,0.1c0.1,0.1,0.2,0.2,0.2,0.4v3
	C-11.5,5058.3-15.3,5061.5-19.9,5061.5z M-12.5,5051.9c-2.9,0.6-5,1.8-6.1,3.6c-1.2,2-1,4.1-0.8,5c3.9-0.2,7-2.9,7-6.2V5051.9z
	 M-19.5,5081v-4.9c0-0.3-0.2-0.5-0.5-0.5s-0.5,0.2-0.5,0.5v4.9c0,0.3,0.2,0.5,0.5,0.5S-19.5,5081.3-19.5,5081z M12,5055.2
	c-2.5,0-4.5-2-4.5-4.5c0-2.3,3.7-7.4,4.1-8c0.1-0.1,0.2-0.2,0.4-0.2h0c0.2,0,0.3,0.1,0.4,0.2c0.4,0.6,4.1,5.7,4.1,8
	C16.5,5053.1,14.5,5055.2,12,5055.2z M12,5043.8c-1.3,1.8-3.5,5.4-3.5,6.9c0,1.9,1.6,3.5,3.5,3.5s3.5-1.6,3.5-3.5
	C15.5,5049.2,13.3,5045.6,12,5043.8z M11.9,5076.6c-4.6,0-8.4-3.2-8.4-7.2v-3c0-0.1,0.1-0.3,0.2-0.4c0.1-0.1,0.3-0.1,0.4-0.1
	c3.5,0.6,6,2,7.4,4.2c1.8,2.9,0.9,6,0.9,6.2C12.3,5076.5,12.1,5076.6,11.9,5076.6z M11.9,5076.1L11.9,5076.1L11.9,5076.1z M4.5,5067
	v2.4c0,3.3,3.1,6,7,6.2c0.2-0.9,0.4-3-0.9-5C9.5,5068.8,7.4,5067.6,4.5,5067z M12.1,5076.6c-0.2,0-0.4-0.1-0.5-0.4
	c0-0.1-0.9-3.3,0.9-6.2c1.4-2.2,3.8-3.6,7.4-4.2c0.1,0,0.3,0,0.4,0.1c0.1,0.1,0.2,0.2,0.2,0.4v3
	C20.5,5073.4,16.7,5076.6,12.1,5076.6z M19.5,5067c-2.9,0.6-5,1.8-6.1,3.6c-1.2,2-1,4.1-0.8,5c3.9-0.2,7-2.9,7-6.2V5067z
	 M11.9,5069.1c-4.6,0-8.4-3.2-8.4-7.2v-3c0-0.1,0.1-0.3,0.2-0.4c0.1-0.1,0.3-0.1,0.4-0.1c3.5,0.6,6,2,7.4,4.2c1.8,2.9,0.9,6,0.9,6.2
	C12.3,5068.9,12.1,5069.1,11.9,5069.1z M11.9,5068.6L11.9,5068.6L11.9,5068.6z M4.5,5059.5v2.4c0,3.3,3.1,6.1,7,6.2
	c0.2-0.9,0.4-3-0.9-5C9.5,5061.3,7.4,5060.1,4.5,5059.5z M12.1,5069.1c-0.2,0-0.4-0.1-0.5-0.4c0-0.1-0.9-3.3,0.9-6.2
	c1.4-2.2,3.8-3.6,7.4-4.2c0.1,0,0.3,0,0.4,0.1c0.1,0.1,0.2,0.2,0.2,0.4v3C20.5,5065.8,16.7,5069.1,12.1,5069.1z M19.5,5059.5
	c-2.9,0.6-5,1.8-6.1,3.6c-1.2,2-1,4.1-0.9,5c3.9-0.2,7-2.9,7-6.2V5059.5z M11.9,5061.5c-4.6,0-8.4-3.2-8.4-7.2v-3
	c0-0.1,0.1-0.3,0.2-0.4c0.1-0.1,0.3-0.1,0.4-0.1c3.5,0.6,6,2,7.4,4.2c1.8,2.9,0.9,6,0.9,6.1C12.3,5061.4,12.1,5061.5,11.9,5061.5z
	 M11.9,5061L11.9,5061L11.9,5061z M4.5,5051.9v2.4c0,3.3,3.1,6,7,6.2c0.2-0.8,0.4-3-0.8-5C9.5,5053.7,7.4,5052.5,4.5,5051.9z
	 M12.1,5061.5c-0.2,0-0.4-0.1-0.5-0.4c0-0.1-0.9-3.3,0.9-6.1c1.4-2.2,3.8-3.6,7.4-4.2c0.1,0,0.3,0,0.4,0.1c0.1,0.1,0.2,0.2,0.2,0.4
	v3C20.5,5058.3,16.7,5061.5,12.1,5061.5z M19.5,5051.9c-2.9,0.6-5,1.8-6.1,3.6c-1.2,2-1,4.1-0.8,5c3.9-0.2,7-2.9,7-6.2V5051.9z
	 M12.5,5081v-4.9c0-0.3-0.2-0.5-0.5-0.5s-0.5,0.2-0.5,0.5v4.9c0,0.3,0.2,0.5,0.5,0.5S12.5,5081.3,12.5,5081z M44,5055.2
	c-2.5,0-4.5-2-4.5-4.5c0-2.3,3.7-7.4,4.1-8c0.1-0.1,0.2-0.2,0.4-0.2h0c0.2,0,0.3,0.1,0.4,0.2c0.4,0.6,4.1,5.7,4.1,8
	C48.5,5053.1,46.5,5055.2,44,5055.2z M44,5043.8c-1.3,1.8-3.5,5.4-3.5,6.9c0,1.9,1.6,3.5,3.5,3.5s3.5-1.6,3.5-3.5
	C47.5,5049.2,45.3,5045.6,44,5043.8z M43.9,5076.6c-4.6,0-8.4-3.2-8.4-7.2v-3c0-0.1,0.1-0.3,0.2-0.4c0.1-0.1,0.3-0.1,0.4-0.1
	c3.5,0.6,6,2,7.4,4.2c1.8,2.9,0.9,6,0.9,6.2C44.3,5076.5,44.1,5076.6,43.9,5076.6z M43.9,5076.1L43.9,5076.1L43.9,5076.1z
	 M36.5,5067v2.4c0,3.3,3.1,6,7,6.2c0.2-0.9,0.4-3-0.9-5C41.5,5068.8,39.4,5067.6,36.5,5067z M44.1,5076.6c-0.2,0-0.4-0.1-0.5-0.4
	c0-0.1-0.9-3.3,0.9-6.2c1.4-2.2,3.8-3.6,7.4-4.2c0.1,0,0.3,0,0.4,0.1c0.1,0.1,0.2,0.2,0.2,0.4v3
	C52.5,5073.4,48.7,5076.6,44.1,5076.6z M51.5,5067c-2.9,0.6-5,1.8-6.1,3.6c-1.2,2-1,4.1-0.8,5c3.9-0.2,7-2.9,7-6.2V5067z
	 M43.9,5069.1c-4.6,0-8.4-3.2-8.4-7.2v-3c0-0.1,0.1-0.3,0.2-0.4c0.1-0.1,0.3-0.1,0.4-0.1c3.5,0.6,6,2,7.4,4.2c1.8,2.9,0.9,6,0.9,6.2
	C44.3,5068.9,44.1,5069.1,43.9,5069.1z M43.9,5068.6L43.9,5068.6L43.9,5068.6z M36.5,5059.5v2.4c0,3.3,3.1,6.1,7,6.2
	c0.2-0.9,0.4-3-0.9-5C41.5,5061.3,39.4,5060.1,36.5,5059.5z M44.1,5069.1c-0.2,0-0.4-0.1-0.5-0.4c0-0.1-0.9-3.3,0.9-6.2
	c1.4-2.2,3.8-3.6,7.4-4.2c0.1,0,0.3,0,0.4,0.1c0.1,0.1,0.2,0.2,0.2,0.4v3C52.5,5065.8,48.7,5069.1,44.1,5069.1z M51.5,5059.5
	c-2.9,0.6-5,1.8-6.1,3.6c-1.2,2-1,4.1-0.9,5c3.9-0.2,7-2.9,7-6.2V5059.5z M43.9,5061.5c-4.6,0-8.4-3.2-8.4-7.2v-3
	c0-0.1,0.1-0.3,0.2-0.4c0.1-0.1,0.3-0.1,0.4-0.1c3.5,0.6,6,2,7.4,4.2c1.8,2.9,0.9,6,0.9,6.1C44.3,5061.4,44.1,5061.5,43.9,5061.5z
	 M43.9,5061L43.9,5061L43.9,5061z M36.5,5051.9v2.4c0,3.3,3.1,6,7,6.2c0.2-0.8,0.4-3-0.8-5C41.5,5053.7,39.4,5052.5,36.5,5051.9z
	 M44.1,5061.5c-0.2,0-0.4-0.1-0.5-0.4c0-0.1-0.9-3.3,0.9-6.1c1.4-2.2,3.8-3.6,7.4-4.2c0.1,0,0.3,0,0.4,0.1c0.1,0.1,0.2,0.2,0.2,0.4
	v3C52.5,5058.3,48.7,5061.5,44.1,5061.5z M51.5,5051.9c-2.9,0.6-5,1.8-6.1,3.6c-1.2,2-1,4.1-0.8,5c3.9-0.2,7-2.9,7-6.2V5051.9z
	 M44.5,5081v-4.9c0-0.3-0.2-0.5-0.5-0.5s-0.5,0.2-0.5,0.5v4.9c0,0.3,0.2,0.5,0.5,0.5S44.5,5081.3,44.5,5081z M76,5055.2
	c-2.5,0-4.5-2-4.5-4.5c0-2.3,3.7-7.4,4.1-8c0.1-0.1,0.2-0.2,0.4-0.2h0c0.2,0,0.3,0.1,0.4,0.2c0.4,0.6,4.1,5.7,4.1,8
	C80.5,5053.1,78.5,5055.2,76,5055.2z M76,5043.8c-1.3,1.8-3.5,5.4-3.5,6.9c0,1.9,1.6,3.5,3.5,3.5s3.5-1.6,3.5-3.5
	C79.5,5049.2,77.3,5045.6,76,5043.8z M75.9,5076.6c-4.6,0-8.4-3.2-8.4-7.2v-3c0-0.1,0.1-0.3,0.2-0.4c0.1-0.1,0.3-0.1,0.4-0.1
	c3.5,0.6,6,2,7.4,4.2c1.8,2.9,0.9,6,0.9,6.2C76.3,5076.5,76.1,5076.6,75.9,5076.6z M75.9,5076.1L75.9,5076.1L75.9,5076.1z
	 M68.5,5067v2.4c0,3.3,3.1,6,7,6.2c0.2-0.9,0.4-3-0.9-5C73.5,5068.8,71.4,5067.6,68.5,5067z M76.1,5076.6c-0.2,0-0.4-0.1-0.5-0.4
	c0-0.1-0.9-3.3,0.9-6.2c1.4-2.2,3.8-3.6,7.4-4.2c0.1,0,0.3,0,0.4,0.1c0.1,0.1,0.2,0.2,0.2,0.4v3
	C84.5,5073.4,80.7,5076.6,76.1,5076.6z M83.5,5067c-2.9,0.6-5,1.8-6.1,3.6c-1.2,2-1,4.1-0.8,5c3.9-0.2,7-2.9,7-6.2V5067z
	 M75.9,5069.1c-4.6,0-8.4-3.2-8.4-7.2v-3c0-0.1,0.1-0.3,0.2-0.4c0.1-0.1,0.3-0.1,0.4-0.1c3.5,0.6,6,2,7.4,4.2c1.8,2.9,0.9,6,0.9,6.2
	C76.3,5068.9,76.1,5069.1,75.9,5069.1z M75.9,5068.6L75.9,5068.6L75.9,5068.6z M68.5,5059.5v2.4c0,3.3,3.1,6.1,7,6.2
	c0.2-0.9,0.4-3-0.9-5C73.5,5061.3,71.4,5060.1,68.5,5059.5z M76.1,5069.1c-0.2,0-0.4-0.1-0.5-0.4c0-0.1-0.9-3.3,0.9-6.2
	c1.4-2.2,3.8-3.6,7.4-4.2c0.1,0,0.3,0,0.4,0.1c0.1,0.1,0.2,0.2,0.2,0.4v3C84.5,5065.8,80.7,5069.1,76.1,5069.1z M83.5,5059.5
	c-2.9,0.6-5,1.8-6.1,3.6c-1.2,2-1,4.1-0.9,5c3.9-0.2,7-2.9,7-6.2V5059.5z M75.9,5061.5c-4.6,0-8.4-3.2-8.4-7.2v-3
	c0-0.1,0.1-0.3,0.2-0.4c0.1-0.1,0.3-0.1,0.4-0.1c3.5,0.6,6,2,7.4,4.2c1.8,2.9,0.9,6,0.9,6.1C76.3,5061.4,76.1,5061.5,75.9,5061.5z
	 M75.9,5061L75.9,5061L75.9,5061z M68.5,5051.9v2.4c0,3.3,3.1,6,7,6.2c0.2-0.8,0.4-3-0.8-5C73.5,5053.7,71.4,5052.5,68.5,5051.9z
	 M76.1,5061.5c-0.2,0-0.4-0.1-0.5-0.4c0-0.1-0.9-3.3,0.9-6.1c1.4-2.2,3.8-3.6,7.4-4.2c0.1,0,0.3,0,0.4,0.1c0.1,0.1,0.2,0.2,0.2,0.4
	v3C84.5,5058.3,80.7,5061.5,76.1,5061.5z M83.5,5051.9c-2.9,0.6-5,1.8-6.1,3.6c-1.2,2-1,4.1-0.8,5c3.9-0.2,7-2.9,7-6.2V5051.9z
	 M76.5,5081v-4.9c0-0.3-0.2-0.5-0.5-0.5s-0.5,0.2-0.5,0.5v4.9c0,0.3,0.2,0.5,0.5,0.5S76.5,5081.3,76.5,5081z M-36,5055.2
	c-2.5,0-4.5-2-4.5-4.5c0-2.3,3.7-7.4,4.1-8c0.1-0.1,0.2-0.2,0.4-0.2h0c0.2,0,0.3,0.1,0.4,0.2c0.4,0.6,4.1,5.7,4.1,8
	C-31.5,5053.1-33.5,5055.2-36,5055.2z M-36,5043.8c-1.3,1.8-3.5,5.4-3.5,6.9c0,1.9,1.6,3.5,3.5,3.5s3.5-1.6,3.5-3.5
	C-32.5,5049.2-34.7,5045.6-36,5043.8z M-36.1,5076.6c-4.6,0-8.4-3.2-8.4-7.2v-3c0-0.1,0.1-0.3,0.2-0.4c0.1-0.1,0.3-0.1,0.4-0.1
	c3.5,0.6,6,2,7.4,4.2c1.8,2.9,0.9,6,0.9,6.2C-35.7,5076.5-35.9,5076.6-36.1,5076.6z M-36.1,5076.1L-36.1,5076.1L-36.1,5076.1z
	 M-43.5,5067v2.4c0,3.3,3.1,6,7,6.2c0.2-0.9,0.4-3-0.9-5C-38.5,5068.8-40.6,5067.6-43.5,5067z M-35.9,5076.6c-0.2,0-0.4-0.1-0.5-0.4
	c0-0.1-0.9-3.3,0.9-6.2c1.4-2.2,3.8-3.6,7.4-4.2c0.1,0,0.3,0,0.4,0.1c0.1,0.1,0.2,0.2,0.2,0.4v3
	C-27.5,5073.4-31.3,5076.6-35.9,5076.6z M-28.5,5067c-2.9,0.6-5,1.8-6.1,3.6c-1.2,2-1,4.1-0.8,5c3.9-0.2,7-2.9,7-6.2V5067z
	 M-36.1,5069.1c-4.6,0-8.4-3.2-8.4-7.2v-3c0-0.1,0.1-0.3,0.2-0.4c0.1-0.1,0.3-0.1,0.4-0.1c3.5,0.6,6,2,7.4,4.2
	c1.8,2.9,0.9,6,0.9,6.2C-35.7,5068.9-35.9,5069.1-36.1,5069.1z M-36.1,5068.6L-36.1,5068.6L-36.1,5068.6z M-43.5,5059.5v2.4
	c0,3.3,3.1,6.1,7,6.2c0.2-0.9,0.4-3-0.9-5C-38.5,5061.3-40.6,5060.1-43.5,5059.5z M-35.9,5069.1c-0.2,0-0.4-0.1-0.5-0.4
	c0-0.1-0.9-3.3,0.9-6.2c1.4-2.2,3.8-3.6,7.4-4.2c0.1,0,0.3,0,0.4,0.1c0.1,0.1,0.2,0.2,0.2,0.4v3
	C-27.5,5065.8-31.3,5069.1-35.9,5069.1z M-28.5,5059.5c-2.9,0.6-5,1.8-6.1,3.6c-1.2,2-1,4.1-0.9,5c3.9-0.2,7-2.9,7-6.2V5059.5z
	 M-36.1,5061.5c-4.6,0-8.4-3.2-8.4-7.2v-3c0-0.1,0.1-0.3,0.2-0.4c0.1-0.1,0.3-0.1,0.4-0.1c3.5,0.6,6,2,7.4,4.2
	c1.8,2.9,0.9,6,0.9,6.1C-35.7,5061.4-35.9,5061.5-36.1,5061.5z M-36.1,5061L-36.1,5061L-36.1,5061z M-43.5,5051.9v2.4
	c0,3.3,3.1,6,7,6.2c0.2-0.8,0.4-3-0.8-5C-38.5,5053.7-40.6,5052.5-43.5,5051.9z M-35.9,5061.5c-0.2,0-0.4-0.1-0.5-0.4
	c0-0.1-0.9-3.3,0.9-6.1c1.4-2.2,3.8-3.6,7.4-4.2c0.1,0,0.3,0,0.4,0.1c0.1,0.1,0.2,0.2,0.2,0.4v3
	C-27.5,5058.3-31.3,5061.5-35.9,5061.5z M-28.5,5051.9c-2.9,0.6-5,1.8-6.1,3.6c-1.2,2-1,4.1-0.8,5c3.9-0.2,7-2.9,7-6.2V5051.9z
	 M-35.5,5081v-4.9c0-0.3-0.2-0.5-0.5-0.5s-0.5,0.2-0.5,0.5v4.9c0,0.3,0.2,0.5,0.5,0.5S-35.5,5081.3-35.5,5081z M-4,5055.2
	c-2.5,0-4.5-2-4.5-4.5c0-2.3,3.7-7.4,4.1-8c0.1-0.1,0.2-0.2,0.4-0.2h0c0.2,0,0.3,0.1,0.4,0.2c0.4,0.6,4.1,5.7,4.1,8
	C0.5,5053.1-1.5,5055.2-4,5055.2z M-4,5043.8c-1.3,1.8-3.5,5.4-3.5,6.9c0,1.9,1.6,3.5,3.5,3.5s3.5-1.6,3.5-3.5
	C-0.5,5049.2-2.7,5045.6-4,5043.8z M-4.1,5076.6c-4.6,0-8.4-3.2-8.4-7.2v-3c0-0.1,0.1-0.3,0.2-0.4c0.1-0.1,0.3-0.1,0.4-0.1
	c3.5,0.6,6,2,7.4,4.2c1.8,2.9,0.9,6,0.9,6.2C-3.7,5076.5-3.9,5076.6-4.1,5076.6z M-4.1,5076.1L-4.1,5076.1L-4.1,5076.1z M-11.5,5067
	v2.4c0,3.3,3.1,6,7,6.2c0.2-0.9,0.4-3-0.9-5C-6.5,5068.8-8.6,5067.6-11.5,5067z M-3.9,5076.6c-0.2,0-0.4-0.1-0.5-0.4
	c0-0.1-0.9-3.3,0.9-6.2c1.4-2.2,3.8-3.6,7.4-4.2c0.1,0,0.3,0,0.4,0.1c0.1,0.1,0.2,0.2,0.2,0.4v3C4.5,5073.4,0.7,5076.6-3.9,5076.6z
	 M3.5,5067c-2.9,0.6-5,1.8-6.1,3.6c-1.2,2-1,4.1-0.8,5c3.9-0.2,7-2.9,7-6.2V5067z M-4.1,5069.1c-4.6,0-8.4-3.2-8.4-7.2v-3
	c0-0.1,0.1-0.3,0.2-0.4c0.1-0.1,0.3-0.1,0.4-0.1c3.5,0.6,6,2,7.4,4.2c1.8,2.9,0.9,6,0.9,6.2C-3.7,5068.9-3.9,5069.1-4.1,5069.1z
	 M-4.1,5068.6L-4.1,5068.6L-4.1,5068.6z M-11.5,5059.5v2.4c0,3.3,3.1,6.1,7,6.2c0.2-0.9,0.4-3-0.9-5
	C-6.5,5061.3-8.6,5060.1-11.5,5059.5z M-3.9,5069.1c-0.2,0-0.4-0.1-0.5-0.4c0-0.1-0.9-3.3,0.9-6.2c1.4-2.2,3.8-3.6,7.4-4.2
	c0.1,0,0.3,0,0.4,0.1c0.1,0.1,0.2,0.2,0.2,0.4v3C4.5,5065.8,0.7,5069.1-3.9,5069.1z M3.5,5059.5c-2.9,0.6-5,1.8-6.1,3.6
	c-1.2,2-1,4.1-0.9,5c3.9-0.2,7-2.9,7-6.2V5059.5z M-4.1,5061.5c-4.6,0-8.4-3.2-8.4-7.2v-3c0-0.1,0.1-0.3,0.2-0.4
	c0.1-0.1,0.3-0.1,0.4-0.1c3.5,0.6,6,2,7.4,4.2c1.8,2.9,0.9,6,0.9,6.1C-3.7,5061.4-3.9,5061.5-4.1,5061.5z M-4.1,5061L-4.1,5061
	L-4.1,5061z M-11.5,5051.9v2.4c0,3.3,3.1,6,7,6.2c0.2-0.8,0.4-3-0.8-5C-6.5,5053.7-8.6,5052.5-11.5,5051.9z M-3.9,5061.5
	c-0.2,0-0.4-0.1-0.5-0.4c0-0.1-0.9-3.3,0.9-6.1c1.4-2.2,3.8-3.6,7.4-4.2c0.1,0,0.3,0,0.4,0.1c0.1,0.1,0.2,0.2,0.2,0.4v3
	C4.5,5058.3,0.7,5061.5-3.9,5061.5z M3.5,5051.9c-2.9,0.6-5,1.8-6.1,3.6c-1.2,2-1,4.1-0.8,5c3.9-0.2,7-2.9,7-6.2V5051.9z M-3.5,5081
	v-4.9c0-0.3-0.2-0.5-0.5-0.5s-0.5,0.2-0.5,0.5v4.9c0,0.3,0.2,0.5,0.5,0.5S-3.5,5081.3-3.5,5081z M28,5055.2c-2.5,0-4.5-2-4.5-4.5
	c0-2.3,3.7-7.4,4.1-8c0.1-0.1,0.2-0.2,0.4-0.2h0c0.2,0,0.3,0.1,0.4,0.2c0.4,0.6,4.1,5.7,4.1,8C32.5,5053.1,30.5,5055.2,28,5055.2z
	 M28,5043.8c-1.3,1.8-3.5,5.4-3.5,6.9c0,1.9,1.6,3.5,3.5,3.5s3.5-1.6,3.5-3.5C31.5,5049.2,29.3,5045.6,28,5043.8z M27.9,5076.6
	c-4.6,0-8.4-3.2-8.4-7.2v-3c0-0.1,0.1-0.3,0.2-0.4c0.1-0.1,0.3-0.1,0.4-0.1c3.5,0.6,6,2,7.4,4.2c1.8,2.9,0.9,6,0.9,6.2
	C28.3,5076.5,28.1,5076.6,27.9,5076.6z M27.9,5076.1L27.9,5076.1L27.9,5076.1z M20.5,5067v2.4c0,3.3,3.1,6,7,6.2
	c0.2-0.9,0.4-3-0.9-5C25.5,5068.8,23.4,5067.6,20.5,5067z M28.1,5076.6c-0.2,0-0.4-0.1-0.5-0.4c0-0.1-0.9-3.3,0.9-6.2
	c1.4-2.2,3.8-3.6,7.4-4.2c0.1,0,0.3,0,0.4,0.1c0.1,0.1,0.2,0.2,0.2,0.4v3C36.5,5073.4,32.7,5076.6,28.1,5076.6z M35.5,5067
	c-2.9,0.6-5,1.8-6.1,3.6c-1.2,2-1,4.1-0.8,5c3.9-0.2,7-2.9,7-6.2V5067z M27.9,5069.1c-4.6,0-8.4-3.2-8.4-7.2v-3
	c0-0.1,0.1-0.3,0.2-0.4c0.1-0.1,0.3-0.1,0.4-0.1c3.5,0.6,6,2,7.4,4.2c1.8,2.9,0.9,6,0.9,6.2C28.3,5068.9,28.1,5069.1,27.9,5069.1z
	 M27.9,5068.6L27.9,5068.6L27.9,5068.6z M20.5,5059.5v2.4c0,3.3,3.1,6.1,7,6.2c0.2-0.9,0.4-3-0.9-5
	C25.5,5061.3,23.4,5060.1,20.5,5059.5z M28.1,5069.1c-0.2,0-0.4-0.1-0.5-0.4c0-0.1-0.9-3.3,0.9-6.2c1.4-2.2,3.8-3.6,7.4-4.2
	c0.1,0,0.3,0,0.4,0.1c0.1,0.1,0.2,0.2,0.2,0.4v3C36.5,5065.8,32.7,5069.1,28.1,5069.1z M35.5,5059.5c-2.9,0.6-5,1.8-6.1,3.6
	c-1.2,2-1,4.1-0.9,5c3.9-0.2,7-2.9,7-6.2V5059.5z M27.9,5061.5c-4.6,0-8.4-3.2-8.4-7.2v-3c0-0.1,0.1-0.3,0.2-0.4
	c0.1-0.1,0.3-0.1,0.4-0.1c3.5,0.6,6,2,7.4,4.2c1.8,2.9,0.9,6,0.9,6.1C28.3,5061.4,28.1,5061.5,27.9,5061.5z M27.9,5061L27.9,5061
	L27.9,5061z M20.5,5051.9v2.4c0,3.3,3.1,6,7,6.2c0.2-0.8,0.4-3-0.8-5C25.5,5053.7,23.4,5052.5,20.5,5051.9z M28.1,5061.5
	c-0.2,0-0.4-0.1-0.5-0.4c0-0.1-0.9-3.3,0.9-6.1c1.4-2.2,3.8-3.6,7.4-4.2c0.1,0,0.3,0,0.4,0.1c0.1,0.1,0.2,0.2,0.2,0.4v3
	C36.5,5058.3,32.7,5061.5,28.1,5061.5z M35.5,5051.9c-2.9,0.6-5,1.8-6.1,3.6c-1.2,2-1,4.1-0.8,5c3.9-0.2,7-2.9,7-6.2V5051.9z
	 M28.5,5081v-4.9c0-0.3-0.2-0.5-0.5-0.5s-0.5,0.2-0.5,0.5v4.9c0,0.3,0.2,0.5,0.5,0.5S28.5,5081.3,28.5,5081z M60,5055.2
	c-2.5,0-4.5-2-4.5-4.5c0-2.3,3.7-7.4,4.1-8c0.1-0.1,0.2-0.2,0.4-0.2h0c0.2,0,0.3,0.1,0.4,0.2c0.4,0.6,4.1,5.7,4.1,8
	C64.5,5053.1,62.5,5055.2,60,5055.2z M60,5043.8c-1.3,1.8-3.5,5.4-3.5,6.9c0,1.9,1.6,3.5,3.5,3.5s3.5-1.6,3.5-3.5
	C63.5,5049.2,61.3,5045.6,60,5043.8z M59.9,5076.6c-4.6,0-8.4-3.2-8.4-7.2v-3c0-0.1,0.1-0.3,0.2-0.4c0.1-0.1,0.3-0.1,0.4-0.1
	c3.5,0.6,6,2,7.4,4.2c1.8,2.9,0.9,6,0.9,6.2C60.3,5076.5,60.1,5076.6,59.9,5076.6z M59.9,5076.1L59.9,5076.1L59.9,5076.1z
	 M52.5,5067v2.4c0,3.3,3.1,6,7,6.2c0.2-0.9,0.4-3-0.9-5C57.5,5068.8,55.4,5067.6,52.5,5067z M60.1,5076.6c-0.2,0-0.4-0.1-0.5-0.4
	c0-0.1-0.9-3.3,0.9-6.2c1.4-2.2,3.8-3.6,7.4-4.2c0.1,0,0.3,0,0.4,0.1c0.1,0.1,0.2,0.2,0.2,0.4v3
	C68.5,5073.4,64.7,5076.6,60.1,5076.6z M67.5,5067c-2.9,0.6-5,1.8-6.1,3.6c-1.2,2-1,4.1-0.8,5c3.9-0.2,7-2.9,7-6.2V5067z
	 M59.9,5069.1c-4.6,0-8.4-3.2-8.4-7.2v-3c0-0.1,0.1-0.3,0.2-0.4c0.1-0.1,0.3-0.1,0.4-0.1c3.5,0.6,6,2,7.4,4.2c1.8,2.9,0.9,6,0.9,6.2
	C60.3,5068.9,60.1,5069.1,59.9,5069.1z M59.9,5068.6L59.9,5068.6L59.9,5068.6z M52.5,5059.5v2.4c0,3.3,3.1,6.1,7,6.2
	c0.2-0.9,0.4-3-0.9-5C57.5,5061.3,55.4,5060.1,52.5,5059.5z M60.1,5069.1c-0.2,0-0.4-0.1-0.5-0.4c0-0.1-0.9-3.3,0.9-6.2
	c1.4-2.2,3.8-3.6,7.4-4.2c0.1,0,0.3,0,0.4,0.1c0.1,0.1,0.2,0.2,0.2,0.4v3C68.5,5065.8,64.7,5069.1,60.1,5069.1z M67.5,5059.5
	c-2.9,0.6-5,1.8-6.1,3.6c-1.2,2-1,4.1-0.9,5c3.9-0.2,7-2.9,7-6.2V5059.5z M59.9,5061.5c-4.6,0-8.4-3.2-8.4-7.2v-3
	c0-0.1,0.1-0.3,0.2-0.4c0.1-0.1,0.3-0.1,0.4-0.1c3.5,0.6,6,2,7.4,4.2c1.8,2.9,0.9,6,0.9,6.1C60.3,5061.4,60.1,5061.5,59.9,5061.5z
	 M59.9,5061L59.9,5061L59.9,5061z M52.5,5051.9v2.4c0,3.3,3.1,6,7,6.2c0.2-0.8,0.4-3-0.8-5C57.5,5053.7,55.4,5052.5,52.5,5051.9z
	 M60.1,5061.5c-0.2,0-0.4-0.1-0.5-0.4c0-0.1-0.9-3.3,0.9-6.1c1.4-2.2,3.8-3.6,7.4-4.2c0.1,0,0.3,0,0.4,0.1c0.1,0.1,0.2,0.2,0.2,0.4
	v3C68.5,5058.3,64.7,5061.5,60.1,5061.5z M67.5,5051.9c-2.9,0.6-5,1.8-6.1,3.6c-1.2,2-1,4.1-0.8,5c3.9-0.2,7-2.9,7-6.2V5051.9z
	 M60.5,5081v-4.9c0-0.3-0.2-0.5-0.5-0.5s-0.5,0.2-0.5,0.5v4.9c0,0.3,0.2,0.5,0.5,0.5S60.5,5081.3,60.5,5081z M92,5055.2
	c-2.5,0-4.5-2-4.5-4.5c0-2.3,3.7-7.4,4.1-8c0.1-0.1,0.2-0.2,0.4-0.2h0c0.2,0,0.3,0.1,0.4,0.2c0.4,0.6,4.1,5.7,4.1,8
	C96.5,5053.1,94.5,5055.2,92,5055.2z M92,5043.8c-1.3,1.8-3.5,5.4-3.5,6.9c0,1.9,1.6,3.5,3.5,3.5s3.5-1.6,3.5-3.5
	C95.5,5049.2,93.3,5045.6,92,5043.8z M91.9,5076.6c-4.6,0-8.4-3.2-8.4-7.2v-3c0-0.1,0.1-0.3,0.2-0.4c0.1-0.1,0.3-0.1,0.4-0.1
	c3.5,0.6,6,2,7.4,4.2c1.8,2.9,0.9,6,0.9,6.2C92.3,5076.5,92.1,5076.6,91.9,5076.6z M91.9,5076.1L91.9,5076.1L91.9,5076.1z
	 M84.5,5067v2.4c0,3.3,3.1,6,7,6.2c0.2-0.9,0.4-3-0.9-5C89.5,5068.8,87.4,5067.6,84.5,5067z M92.1,5076.6c-0.2,0-0.4-0.1-0.5-0.4
	c0-0.1-0.9-3.3,0.9-6.2c1.4-2.2,3.8-3.6,7.4-4.2c0.1,0,0.3,0,0.4,0.1c0.1,0.1,0.2,0.2,0.2,0.4v3
	C100.5,5073.4,96.7,5076.6,92.1,5076.6z M99.5,5067c-2.9,0.6-5,1.8-6.1,3.6c-1.2,2-1,4.1-0.8,5c3.9-0.2,7-2.9,7-6.2V5067z
	 M91.9,5069.1c-4.6,0-8.4-3.2-8.4-7.2v-3c0-0.1,0.1-0.3,0.2-0.4c0.1-0.1,0.3-0.1,0.4-0.1c3.5,0.6,6,2,7.4,4.2c1.8,2.9,0.9,6,0.9,6.2
	C92.3,5068.9,92.1,5069.1,91.9,5069.1z M91.9,5068.6L91.9,5068.6L91.9,5068.6z M84.5,5059.5v2.4c0,3.3,3.1,6.1,7,6.2
	c0.2-0.9,0.4-3-0.9-5C89.5,5061.3,87.4,5060.1,84.5,5059.5z M92.1,5069.1c-0.2,0-0.4-0.1-0.5-0.4c0-0.1-0.9-3.3,0.9-6.2
	c1.4-2.2,3.8-3.6,7.4-4.2c0.1,0,0.3,0,0.4,0.1c0.1,0.1,0.2,0.2,0.2,0.4v3C100.5,5065.8,96.7,5069.1,92.1,5069.1z M99.5,5059.5
	c-2.9,0.6-5,1.8-6.1,3.6c-1.2,2-1,4.1-0.9,5c3.9-0.2,7-2.9,7-6.2V5059.5z M91.9,5061.5c-4.6,0-8.4-3.2-8.4-7.2v-3
	c0-0.1,0.1-0.3,0.2-0.4c0.1-0.1,0.3-0.1,0.4-0.1c3.5,0.6,6,2,7.4,4.2c1.8,2.9,0.9,6,0.9,6.1C92.3,5061.4,92.1,5061.5,91.9,5061.5z
	 M91.9,5061L91.9,5061L91.9,5061z M84.5,5051.9v2.4c0,3.3,3.1,6,7,6.2c0.2-0.8,0.4-3-0.8-5C89.5,5053.7,87.4,5052.5,84.5,5051.9z
	 M92.1,5061.5c-0.2,0-0.4-0.1-0.5-0.4c0-0.1-0.9-3.3,0.9-6.1c1.4-2.2,3.8-3.6,7.4-4.2c0.1,0,0.3,0,0.4,0.1c0.1,0.1,0.2,0.2,0.2,0.4
	v3C100.5,5058.3,96.7,5061.5,92.1,5061.5z M99.5,5051.9c-2.9,0.6-5,1.8-6.1,3.6c-1.2,2-1,4.1-0.8,5c3.9-0.2,7-2.9,7-6.2V5051.9z
	 M92.5,5081v-4.9c0-0.3-0.2-0.5-0.5-0.5s-0.5,0.2-0.5,0.5v4.9c0,0.3,0.2,0.5,0.5,0.5S92.5,5081.3,92.5,5081z M108,5055.2
	c-2.5,0-4.5-2-4.5-4.5c0-2.3,3.7-7.4,4.1-8c0.1-0.1,0.2-0.2,0.4-0.2l0,0c0.2,0,0.3,0.1,0.4,0.2c0.4,0.6,4.1,5.7,4.1,8
	C112.5,5053.1,110.5,5055.2,108,5055.2z M108,5043.8c-1.3,1.8-3.5,5.4-3.5,6.9c0,1.9,1.6,3.5,3.5,3.5s3.5-1.6,3.5-3.5
	C111.5,5049.2,109.3,5045.6,108,5043.8z M107.9,5076.6c-4.6,0-8.4-3.2-8.4-7.2v-3c0-0.1,0.1-0.3,0.2-0.4c0.1-0.1,0.3-0.1,0.4-0.1
	c3.5,0.6,6,2,7.4,4.2c1.8,2.9,0.9,6,0.9,6.2C108.3,5076.5,108.1,5076.6,107.9,5076.6z M107.9,5076.1L107.9,5076.1L107.9,5076.1z
	 M100.5,5067v2.4c0,3.3,3.1,6,7,6.2c0.2-0.9,0.4-3-0.9-5C105.5,5068.8,103.4,5067.6,100.5,5067z M108.1,5076.6
	c-0.2,0-0.4-0.1-0.5-0.4c0-0.1-0.9-3.3,0.9-6.2c1.4-2.2,3.8-3.6,7.4-4.2c0.1,0,0.3,0,0.4,0.1c0.1,0.1,0.2,0.2,0.2,0.4v3
	C116.5,5073.4,112.7,5076.6,108.1,5076.6z M115.5,5067c-2.9,0.6-5,1.8-6.1,3.6c-1.2,2-1,4.1-0.8,5c3.9-0.2,7-2.9,7-6.2V5067z
	 M107.9,5069.1c-4.6,0-8.4-3.2-8.4-7.2v-3c0-0.1,0.1-0.3,0.2-0.4c0.1-0.1,0.3-0.1,0.4-0.1c3.5,0.6,6,2,7.4,4.2
	c1.8,2.9,0.9,6,0.9,6.2C108.3,5068.9,108.1,5069.1,107.9,5069.1z M107.9,5068.6L107.9,5068.6L107.9,5068.6z M100.5,5059.5v2.4
	c0,3.3,3.1,6.1,7,6.2c0.2-0.9,0.4-3-0.9-5C105.5,5061.3,103.4,5060.1,100.5,5059.5z M108.1,5069.1c-0.2,0-0.4-0.1-0.5-0.4
	c0-0.1-0.9-3.3,0.9-6.2c1.4-2.2,3.8-3.6,7.4-4.2c0.1,0,0.3,0,0.4,0.1c0.1,0.1,0.2,0.2,0.2,0.4v3
	C116.5,5065.8,112.7,5069.1,108.1,5069.1z M115.5,5059.5c-2.9,0.6-5,1.8-6.1,3.6c-1.2,2-1,4.1-0.9,5c3.9-0.2,7-2.9,7-6.2V5059.5z
	 M107.9,5061.5c-4.6,0-8.4-3.2-8.4-7.2v-3c0-0.1,0.1-0.3,0.2-0.4c0.1-0.1,0.3-0.1,0.4-0.1c3.5,0.6,6,2,7.4,4.2
	c1.8,2.9,0.9,6,0.9,6.1C108.3,5061.4,108.1,5061.5,107.9,5061.5z M107.9,5061L107.9,5061L107.9,5061z M100.5,5051.9v2.4
	c0,3.3,3.1,6,7,6.2c0.2-0.8,0.4-3-0.8-5C105.5,5053.7,103.4,5052.5,100.5,5051.9z M108.1,5061.5c-0.2,0-0.4-0.1-0.5-0.4
	c0-0.1-0.9-3.3,0.9-6.1c1.4-2.2,3.8-3.6,7.4-4.2c0.1,0,0.3,0,0.4,0.1c0.1,0.1,0.2,0.2,0.2,0.4v3
	C116.5,5058.3,112.7,5061.5,108.1,5061.5z M115.5,5051.9c-2.9,0.6-5,1.8-6.1,3.6c-1.2,2-1,4.1-0.8,5c3.9-0.2,7-2.9,7-6.2V5051.9z
	 M108.5,5081v-4.9c0-0.3-0.2-0.5-0.5-0.5s-0.5,0.2-0.5,0.5v4.9c0,0.3,0.2,0.5,0.5,0.5S108.5,5081.3,108.5,5081z M140,5055.2
	c-2.5,0-4.5-2-4.5-4.5c0-2.3,3.7-7.4,4.1-8c0.1-0.1,0.2-0.2,0.4-0.2l0,0c0.2,0,0.3,0.1,0.4,0.2c0.4,0.6,4.1,5.7,4.1,8
	C144.5,5053.1,142.5,5055.2,140,5055.2z M140,5043.8c-1.3,1.8-3.5,5.4-3.5,6.9c0,1.9,1.6,3.5,3.5,3.5s3.5-1.6,3.5-3.5
	C143.5,5049.2,141.3,5045.6,140,5043.8z M139.9,5076.6c-4.6,0-8.4-3.2-8.4-7.2v-3c0-0.1,0.1-0.3,0.2-0.4s0.3-0.1,0.4-0.1
	c3.5,0.6,6,2,7.4,4.2c1.8,2.9,0.9,6,0.9,6.2C140.3,5076.5,140.1,5076.6,139.9,5076.6z M139.9,5076.1L139.9,5076.1L139.9,5076.1z
	 M132.5,5067v2.4c0,3.3,3.1,6,7,6.2c0.2-0.9,0.4-3-0.9-5C137.5,5068.8,135.4,5067.6,132.5,5067z M140.1,5076.6
	c-0.2,0-0.4-0.1-0.5-0.4c0-0.1-0.9-3.3,0.9-6.2c1.4-2.2,3.8-3.6,7.4-4.2c0.1,0,0.3,0,0.4,0.1c0.1,0.1,0.2,0.2,0.2,0.4v3
	C148.5,5073.4,144.7,5076.6,140.1,5076.6z M147.5,5067c-2.9,0.6-5,1.8-6.1,3.6c-1.2,2-1,4.1-0.8,5c3.9-0.2,7-2.9,7-6.2V5067z
	 M139.9,5069.1c-4.6,0-8.4-3.2-8.4-7.2v-3c0-0.1,0.1-0.3,0.2-0.4c0.1-0.1,0.3-0.1,0.4-0.1c3.5,0.6,6,2,7.4,4.2
	c1.8,2.9,0.9,6,0.9,6.2C140.3,5068.9,140.1,5069.1,139.9,5069.1z M139.9,5068.6L139.9,5068.6L139.9,5068.6z M132.5,5059.5v2.4
	c0,3.3,3.1,6.1,7,6.2c0.2-0.9,0.4-3-0.9-5C137.5,5061.3,135.4,5060.1,132.5,5059.5z M140.1,5069.1c-0.2,0-0.4-0.1-0.5-0.4
	c0-0.1-0.9-3.3,0.9-6.2c1.4-2.2,3.8-3.6,7.4-4.2c0.1,0,0.3,0,0.4,0.1c0.1,0.1,0.2,0.2,0.2,0.4v3
	C148.5,5065.8,144.7,5069.1,140.1,5069.1z M147.5,5059.5c-2.9,0.6-5,1.8-6.1,3.6c-1.2,2-1,4.1-0.9,5c3.9-0.2,7-2.9,7-6.2V5059.5z
	 M139.9,5061.5c-4.6,0-8.4-3.2-8.4-7.2v-3c0-0.1,0.1-0.3,0.2-0.4c0.1-0.1,0.3-0.1,0.4-0.1c3.5,0.6,6,2,7.4,4.2
	c1.8,2.9,0.9,6,0.9,6.1C140.3,5061.4,140.1,5061.5,139.9,5061.5z M139.9,5061L139.9,5061L139.9,5061z M132.5,5051.9v2.4
	c0,3.3,3.1,6,7,6.2c0.2-0.8,0.4-3-0.8-5C137.5,5053.7,135.4,5052.5,132.5,5051.9z M140.1,5061.5c-0.2,0-0.4-0.1-0.5-0.4
	c0-0.1-0.9-3.3,0.9-6.1c1.4-2.2,3.8-3.6,7.4-4.2c0.1,0,0.3,0,0.4,0.1c0.1,0.1,0.2,0.2,0.2,0.4v3
	C148.5,5058.3,144.7,5061.5,140.1,5061.5z M147.5,5051.9c-2.9,0.6-5,1.8-6.1,3.6c-1.2,2-1,4.1-0.8,5c3.9-0.2,7-2.9,7-6.2V5051.9z
	 M140.5,5081v-4.9c0-0.3-0.2-0.5-0.5-0.5s-0.5,0.2-0.5,0.5v4.9c0,0.3,0.2,0.5,0.5,0.5S140.5,5081.3,140.5,5081z M172,5055.2
	c-2.5,0-4.5-2-4.5-4.5c0-2.3,3.7-7.4,4.1-8c0.1-0.1,0.2-0.2,0.4-0.2l0,0c0.2,0,0.3,0.1,0.4,0.2c0.4,0.6,4.1,5.7,4.1,8
	C176.5,5053.1,174.5,5055.2,172,5055.2z M172,5043.8c-1.3,1.8-3.5,5.4-3.5,6.9c0,1.9,1.6,3.5,3.5,3.5s3.5-1.6,3.5-3.5
	C175.5,5049.2,173.3,5045.6,172,5043.8z M171.9,5076.6c-4.6,0-8.4-3.2-8.4-7.2v-3c0-0.1,0.1-0.3,0.2-0.4s0.3-0.1,0.4-0.1
	c3.5,0.6,6,2,7.4,4.2c1.8,2.9,0.9,6,0.9,6.2C172.3,5076.5,172.1,5076.6,171.9,5076.6z M171.9,5076.1L171.9,5076.1L171.9,5076.1z
	 M164.5,5067v2.4c0,3.3,3.1,6,7,6.2c0.2-0.9,0.4-3-0.9-5C169.5,5068.8,167.4,5067.6,164.5,5067z M172.1,5076.6
	c-0.2,0-0.4-0.1-0.5-0.4c0-0.1-0.9-3.3,0.9-6.2c1.4-2.2,3.8-3.6,7.4-4.2c0.1,0,0.3,0,0.4,0.1c0.1,0.1,0.2,0.2,0.2,0.4v3
	C180.5,5073.4,176.7,5076.6,172.1,5076.6z M179.5,5067c-2.9,0.6-5,1.8-6.1,3.6c-1.2,2-1,4.1-0.8,5c3.9-0.2,7-2.9,7-6.2V5067z
	 M171.9,5069.1c-4.6,0-8.4-3.2-8.4-7.2v-3c0-0.1,0.1-0.3,0.2-0.4c0.1-0.1,0.3-0.1,0.4-0.1c3.5,0.6,6,2,7.4,4.2
	c1.8,2.9,0.9,6,0.9,6.2C172.3,5068.9,172.1,5069.1,171.9,5069.1z M171.9,5068.6L171.9,5068.6L171.9,5068.6z M164.5,5059.5v2.4
	c0,3.3,3.1,6.1,7,6.2c0.2-0.9,0.4-3-0.9-5C169.5,5061.3,167.4,5060.1,164.5,5059.5z M172.1,5069.1c-0.2,0-0.4-0.1-0.5-0.4
	c0-0.1-0.9-3.3,0.9-6.2c1.4-2.2,3.8-3.6,7.4-4.2c0.1,0,0.3,0,0.4,0.1c0.1,0.1,0.2,0.2,0.2,0.4v3
	C180.5,5065.8,176.7,5069.1,172.1,5069.1z M179.5,5059.5c-2.9,0.6-5,1.8-6.1,3.6c-1.2,2-1,4.1-0.9,5c3.9-0.2,7-2.9,7-6.2V5059.5z
	 M171.9,5061.5c-4.6,0-8.4-3.2-8.4-7.2v-3c0-0.1,0.1-0.3,0.2-0.4c0.1-0.1,0.3-0.1,0.4-0.1c3.5,0.6,6,2,7.4,4.2
	c1.8,2.9,0.9,6,0.9,6.1C172.3,5061.4,172.1,5061.5,171.9,5061.5z M171.9,5061L171.9,5061L171.9,5061z M164.5,5051.9v2.4
	c0,3.3,3.1,6,7,6.2c0.2-0.8,0.4-3-0.8-5C169.5,5053.7,167.4,5052.5,164.5,5051.9z M172.1,5061.5c-0.2,0-0.4-0.1-0.5-0.4
	c0-0.1-0.9-3.3,0.9-6.1c1.4-2.2,3.8-3.6,7.4-4.2c0.1,0,0.3,0,0.4,0.1c0.1,0.1,0.2,0.2,0.2,0.4v3
	C180.5,5058.3,176.7,5061.5,172.1,5061.5z M179.5,5051.9c-2.9,0.6-5,1.8-6.1,3.6c-1.2,2-1,4.1-0.8,5c3.9-0.2,7-2.9,7-6.2V5051.9z
	 M172.5,5081v-4.9c0-0.3-0.2-0.5-0.5-0.5s-0.5,0.2-0.5,0.5v4.9c0,0.3,0.2,0.5,0.5,0.5S172.5,5081.3,172.5,5081z M204,5055.2
	c-2.5,0-4.5-2-4.5-4.5c0-2.3,3.7-7.4,4.1-8c0.1-0.1,0.2-0.2,0.4-0.2l0,0c0.2,0,0.3,0.1,0.4,0.2c0.4,0.6,4.1,5.7,4.1,8
	C208.5,5053.1,206.5,5055.2,204,5055.2z M204,5043.8c-1.3,1.8-3.5,5.4-3.5,6.9c0,1.9,1.6,3.5,3.5,3.5s3.5-1.6,3.5-3.5
	C207.5,5049.2,205.3,5045.6,204,5043.8z M203.9,5076.6c-4.6,0-8.4-3.2-8.4-7.2v-3c0-0.1,0.1-0.3,0.2-0.4s0.3-0.1,0.4-0.1
	c3.5,0.6,6,2,7.4,4.2c1.8,2.9,0.9,6,0.9,6.2C204.3,5076.5,204.1,5076.6,203.9,5076.6z M203.9,5076.1L203.9,5076.1L203.9,5076.1z
	 M196.5,5067v2.4c0,3.3,3.1,6,7,6.2c0.2-0.9,0.4-3-0.9-5C201.5,5068.8,199.4,5067.6,196.5,5067z M204.1,5076.6
	c-0.2,0-0.4-0.1-0.5-0.4c0-0.1-0.9-3.3,0.9-6.2c1.4-2.2,3.8-3.6,7.4-4.2c0.1,0,0.3,0,0.4,0.1c0.1,0.1,0.2,0.2,0.2,0.4v3
	C212.5,5073.4,208.7,5076.6,204.1,5076.6z M211.5,5067c-2.9,0.6-5,1.8-6.1,3.6c-1.2,2-1,4.1-0.8,5c3.9-0.2,7-2.9,7-6.2V5067z
	 M203.9,5069.1c-4.6,0-8.4-3.2-8.4-7.2v-3c0-0.1,0.1-0.3,0.2-0.4c0.1-0.1,0.3-0.1,0.4-0.1c3.5,0.6,6,2,7.4,4.2
	c1.8,2.9,0.9,6,0.9,6.2C204.3,5068.9,204.1,5069.1,203.9,5069.1z M203.9,5068.6L203.9,5068.6L203.9,5068.6z M196.5,5059.5v2.4
	c0,3.3,3.1,6.1,7,6.2c0.2-0.9,0.4-3-0.9-5C201.5,5061.3,199.4,5060.1,196.5,5059.5z M204.1,5069.1c-0.2,0-0.4-0.1-0.5-0.4
	c0-0.1-0.9-3.3,0.9-6.2c1.4-2.2,3.8-3.6,7.4-4.2c0.1,0,0.3,0,0.4,0.1c0.1,0.1,0.2,0.2,0.2,0.4v3
	C212.5,5065.8,208.7,5069.1,204.1,5069.1z M211.5,5059.5c-2.9,0.6-5,1.8-6.1,3.6c-1.2,2-1,4.1-0.9,5c3.9-0.2,7-2.9,7-6.2V5059.5z
	 M203.9,5061.5c-4.6,0-8.4-3.2-8.4-7.2v-3c0-0.1,0.1-0.3,0.2-0.4c0.1-0.1,0.3-0.1,0.4-0.1c3.5,0.6,6,2,7.4,4.2
	c1.8,2.9,0.9,6,0.9,6.1C204.3,5061.4,204.1,5061.5,203.9,5061.5z M203.9,5061L203.9,5061L203.9,5061z M196.5,5051.9v2.4
	c0,3.3,3.1,6,7,6.2c0.2-0.8,0.4-3-0.8-5C201.5,5053.7,199.4,5052.5,196.5,5051.9z M204.1,5061.5c-0.2,0-0.4-0.1-0.5-0.4
	c0-0.1-0.9-3.3,0.9-6.1c1.4-2.2,3.8-3.6,7.4-4.2c0.1,0,0.3,0,0.4,0.1c0.1,0.1,0.2,0.2,0.2,0.4v3
	C212.5,5058.3,208.7,5061.5,204.1,5061.5z M211.5,5051.9c-2.9,0.6-5,1.8-6.1,3.6c-1.2,2-1,4.1-0.8,5c3.9-0.2,7-2.9,7-6.2V5051.9z
	 M204.5,5081v-4.9c0-0.3-0.2-0.5-0.5-0.5s-0.5,0.2-0.5,0.5v4.9c0,0.3,0.2,0.5,0.5,0.5S204.5,5081.3,204.5,5081z M236,5055.2
	c-2.5,0-4.5-2-4.5-4.5c0-2.3,3.7-7.4,4.1-8c0.1-0.1,0.2-0.2,0.4-0.2l0,0c0.2,0,0.3,0.1,0.4,0.2c0.4,0.6,4.1,5.7,4.1,8
	C240.5,5053.1,238.5,5055.2,236,5055.2z M236,5043.8c-1.3,1.8-3.5,5.4-3.5,6.9c0,1.9,1.6,3.5,3.5,3.5s3.5-1.6,3.5-3.5
	C239.5,5049.2,237.3,5045.6,236,5043.8z M235.9,5076.6c-4.6,0-8.4-3.2-8.4-7.2v-3c0-0.1,0.1-0.3,0.2-0.4s0.3-0.1,0.4-0.1
	c3.5,0.6,6,2,7.4,4.2c1.8,2.9,0.9,6,0.9,6.2C236.3,5076.5,236.1,5076.6,235.9,5076.6z M235.9,5076.1L235.9,5076.1L235.9,5076.1z
	 M228.5,5067v2.4c0,3.3,3.1,6,7,6.2c0.2-0.9,0.4-3-0.9-5C233.5,5068.8,231.4,5067.6,228.5,5067z M236.1,5076.6
	c-0.2,0-0.4-0.1-0.5-0.4c0-0.1-0.9-3.3,0.9-6.2c1.4-2.2,3.8-3.6,7.4-4.2c0.1,0,0.3,0,0.4,0.1c0.1,0.1,0.2,0.2,0.2,0.4v3
	C244.5,5073.4,240.7,5076.6,236.1,5076.6z M243.5,5067c-2.9,0.6-5,1.8-6.1,3.6c-1.2,2-1,4.1-0.8,5c3.9-0.2,7-2.9,7-6.2V5067z
	 M235.9,5069.1c-4.6,0-8.4-3.2-8.4-7.2v-3c0-0.1,0.1-0.3,0.2-0.4c0.1-0.1,0.3-0.1,0.4-0.1c3.5,0.6,6,2,7.4,4.2
	c1.8,2.9,0.9,6,0.9,6.2C236.3,5068.9,236.1,5069.1,235.9,5069.1z M235.9,5068.6L235.9,5068.6L235.9,5068.6z M228.5,5059.5v2.4
	c0,3.3,3.1,6.1,7,6.2c0.2-0.9,0.4-3-0.9-5C233.5,5061.3,231.4,5060.1,228.5,5059.5z M236.1,5069.1c-0.2,0-0.4-0.1-0.5-0.4
	c0-0.1-0.9-3.3,0.9-6.2c1.4-2.2,3.8-3.6,7.4-4.2c0.1,0,0.3,0,0.4,0.1c0.1,0.1,0.2,0.2,0.2,0.4v3
	C244.5,5065.8,240.7,5069.1,236.1,5069.1z M243.5,5059.5c-2.9,0.6-5,1.8-6.1,3.6c-1.2,2-1,4.1-0.9,5c3.9-0.2,7-2.9,7-6.2V5059.5z
	 M235.9,5061.5c-4.6,0-8.4-3.2-8.4-7.2v-3c0-0.1,0.1-0.3,0.2-0.4c0.1-0.1,0.3-0.1,0.4-0.1c3.5,0.6,6,2,7.4,4.2
	c1.8,2.9,0.9,6,0.9,6.1C236.3,5061.4,236.1,5061.5,235.9,5061.5z M235.9,5061L235.9,5061L235.9,5061z M228.5,5051.9v2.4
	c0,3.3,3.1,6,7,6.2c0.2-0.8,0.4-3-0.8-5C233.5,5053.7,231.4,5052.5,228.5,5051.9z M236.1,5061.5c-0.2,0-0.4-0.1-0.5-0.4
	c0-0.1-0.9-3.3,0.9-6.1c1.4-2.2,3.8-3.6,7.4-4.2c0.1,0,0.3,0,0.4,0.1c0.1,0.1,0.2,0.2,0.2,0.4v3
	C244.5,5058.3,240.7,5061.5,236.1,5061.5z M243.5,5051.9c-2.9,0.6-5,1.8-6.1,3.6c-1.2,2-1,4.1-0.8,5c3.9-0.2,7-2.9,7-6.2V5051.9z
	 M236.5,5081v-4.9c0-0.3-0.2-0.5-0.5-0.5s-0.5,0.2-0.5,0.5v4.9c0,0.3,0.2,0.5,0.5,0.5S236.5,5081.3,236.5,5081z M124,5055.2
	c-2.5,0-4.5-2-4.5-4.5c0-2.3,3.7-7.4,4.1-8c0.1-0.1,0.2-0.2,0.4-0.2l0,0c0.2,0,0.3,0.1,0.4,0.2c0.4,0.6,4.1,5.7,4.1,8
	C128.5,5053.1,126.5,5055.2,124,5055.2z M124,5043.8c-1.3,1.8-3.5,5.4-3.5,6.9c0,1.9,1.6,3.5,3.5,3.5s3.5-1.6,3.5-3.5
	C127.5,5049.2,125.3,5045.6,124,5043.8z M123.9,5076.6c-4.6,0-8.4-3.2-8.4-7.2v-3c0-0.1,0.1-0.3,0.2-0.4s0.3-0.1,0.4-0.1
	c3.5,0.6,6,2,7.4,4.2c1.8,2.9,0.9,6,0.9,6.2C124.3,5076.5,124.1,5076.6,123.9,5076.6z M123.9,5076.1L123.9,5076.1L123.9,5076.1z
	 M116.5,5067v2.4c0,3.3,3.1,6,7,6.2c0.2-0.9,0.4-3-0.9-5C121.5,5068.8,119.4,5067.6,116.5,5067z M124.1,5076.6
	c-0.2,0-0.4-0.1-0.5-0.4c0-0.1-0.9-3.3,0.9-6.2c1.4-2.2,3.8-3.6,7.4-4.2c0.1,0,0.3,0,0.4,0.1c0.1,0.1,0.2,0.2,0.2,0.4v3
	C132.5,5073.4,128.7,5076.6,124.1,5076.6z M131.5,5067c-2.9,0.6-5,1.8-6.1,3.6c-1.2,2-1,4.1-0.8,5c3.9-0.2,7-2.9,7-6.2V5067z
	 M123.9,5069.1c-4.6,0-8.4-3.2-8.4-7.2v-3c0-0.1,0.1-0.3,0.2-0.4c0.1-0.1,0.3-0.1,0.4-0.1c3.5,0.6,6,2,7.4,4.2
	c1.8,2.9,0.9,6,0.9,6.2C124.3,5068.9,124.1,5069.1,123.9,5069.1z M123.9,5068.6L123.9,5068.6L123.9,5068.6z M116.5,5059.5v2.4
	c0,3.3,3.1,6.1,7,6.2c0.2-0.9,0.4-3-0.9-5C121.5,5061.3,119.4,5060.1,116.5,5059.5z M124.1,5069.1c-0.2,0-0.4-0.1-0.5-0.4
	c0-0.1-0.9-3.3,0.9-6.2c1.4-2.2,3.8-3.6,7.4-4.2c0.1,0,0.3,0,0.4,0.1c0.1,0.1,0.2,0.2,0.2,0.4v3
	C132.5,5065.8,128.7,5069.1,124.1,5069.1z M131.5,5059.5c-2.9,0.6-5,1.8-6.1,3.6c-1.2,2-1,4.1-0.9,5c3.9-0.2,7-2.9,7-6.2V5059.5z
	 M123.9,5061.5c-4.6,0-8.4-3.2-8.4-7.2v-3c0-0.1,0.1-0.3,0.2-0.4c0.1-0.1,0.3-0.1,0.4-0.1c3.5,0.6,6,2,7.4,4.2
	c1.8,2.9,0.9,6,0.9,6.1C124.3,5061.4,124.1,5061.5,123.9,5061.5z M123.9,5061L123.9,5061L123.9,5061z M116.5,5051.9v2.4
	c0,3.3,3.1,6,7,6.2c0.2-0.8,0.4-3-0.8-5C121.5,5053.7,119.4,5052.5,116.5,5051.9z M124.1,5061.5c-0.2,0-0.4-0.1-0.5-0.4
	c0-0.1-0.9-3.3,0.9-6.1c1.4-2.2,3.8-3.6,7.4-4.2c0.1,0,0.3,0,0.4,0.1c0.1,0.1,0.2,0.2,0.2,0.4v3
	C132.5,5058.3,128.7,5061.5,124.1,5061.5z M131.5,5051.9c-2.9,0.6-5,1.8-6.1,3.6c-1.2,2-1,4.1-0.8,5c3.9-0.2,7-2.9,7-6.2V5051.9z
	 M124.5,5081v-4.9c0-0.3-0.2-0.5-0.5-0.5s-0.5,0.2-0.5,0.5v4.9c0,0.3,0.2,0.5,0.5,0.5S124.5,5081.3,124.5,5081z M156,5055.2
	c-2.5,0-4.5-2-4.5-4.5c0-2.3,3.7-7.4,4.1-8c0.1-0.1,0.2-0.2,0.4-0.2l0,0c0.2,0,0.3,0.1,0.4,0.2c0.4,0.6,4.1,5.7,4.1,8
	C160.5,5053.1,158.5,5055.2,156,5055.2z M156,5043.8c-1.3,1.8-3.5,5.4-3.5,6.9c0,1.9,1.6,3.5,3.5,3.5s3.5-1.6,3.5-3.5
	C159.5,5049.2,157.3,5045.6,156,5043.8z M155.9,5076.6c-4.6,0-8.4-3.2-8.4-7.2v-3c0-0.1,0.1-0.3,0.2-0.4s0.3-0.1,0.4-0.1
	c3.5,0.6,6,2,7.4,4.2c1.8,2.9,0.9,6,0.9,6.2C156.3,5076.5,156.1,5076.6,155.9,5076.6z M155.9,5076.1L155.9,5076.1L155.9,5076.1z
	 M148.5,5067v2.4c0,3.3,3.1,6,7,6.2c0.2-0.9,0.4-3-0.9-5C153.5,5068.8,151.4,5067.6,148.5,5067z M156.1,5076.6
	c-0.2,0-0.4-0.1-0.5-0.4c0-0.1-0.9-3.3,0.9-6.2c1.4-2.2,3.8-3.6,7.4-4.2c0.1,0,0.3,0,0.4,0.1s0.2,0.2,0.2,0.4v3
	C164.5,5073.4,160.7,5076.6,156.1,5076.6z M163.5,5067c-2.9,0.6-5,1.8-6.1,3.6c-1.2,2-1,4.1-0.8,5c3.9-0.2,7-2.9,7-6.2V5067z
	 M155.9,5069.1c-4.6,0-8.4-3.2-8.4-7.2v-3c0-0.1,0.1-0.3,0.2-0.4c0.1-0.1,0.3-0.1,0.4-0.1c3.5,0.6,6,2,7.4,4.2
	c1.8,2.9,0.9,6,0.9,6.2C156.3,5068.9,156.1,5069.1,155.9,5069.1z M155.9,5068.6L155.9,5068.6L155.9,5068.6z M148.5,5059.5v2.4
	c0,3.3,3.1,6.1,7,6.2c0.2-0.9,0.4-3-0.9-5C153.5,5061.3,151.4,5060.1,148.5,5059.5z M156.1,5069.1c-0.2,0-0.4-0.1-0.5-0.4
	c0-0.1-0.9-3.3,0.9-6.2c1.4-2.2,3.8-3.6,7.4-4.2c0.1,0,0.3,0,0.4,0.1c0.1,0.1,0.2,0.2,0.2,0.4v3
	C164.5,5065.8,160.7,5069.1,156.1,5069.1z M163.5,5059.5c-2.9,0.6-5,1.8-6.1,3.6c-1.2,2-1,4.1-0.9,5c3.9-0.2,7-2.9,7-6.2V5059.5z
	 M155.9,5061.5c-4.6,0-8.4-3.2-8.4-7.2v-3c0-0.1,0.1-0.3,0.2-0.4c0.1-0.1,0.3-0.1,0.4-0.1c3.5,0.6,6,2,7.4,4.2
	c1.8,2.9,0.9,6,0.9,6.1C156.3,5061.4,156.1,5061.5,155.9,5061.5z M155.9,5061L155.9,5061L155.9,5061z M148.5,5051.9v2.4
	c0,3.3,3.1,6,7,6.2c0.2-0.8,0.4-3-0.8-5C153.5,5053.7,151.4,5052.5,148.5,5051.9z M156.1,5061.5c-0.2,0-0.4-0.1-0.5-0.4
	c0-0.1-0.9-3.3,0.9-6.1c1.4-2.2,3.8-3.6,7.4-4.2c0.1,0,0.3,0,0.4,0.1c0.1,0.1,0.2,0.2,0.2,0.4v3
	C164.5,5058.3,160.7,5061.5,156.1,5061.5z M163.5,5051.9c-2.9,0.6-5,1.8-6.1,3.6c-1.2,2-1,4.1-0.8,5c3.9-0.2,7-2.9,7-6.2V5051.9z
	 M156.5,5081v-4.9c0-0.3-0.2-0.5-0.5-0.5s-0.5,0.2-0.5,0.5v4.9c0,0.3,0.2,0.5,0.5,0.5S156.5,5081.3,156.5,5081z M188,5055.2
	c-2.5,0-4.5-2-4.5-4.5c0-2.3,3.7-7.4,4.1-8c0.1-0.1,0.2-0.2,0.4-0.2l0,0c0.2,0,0.3,0.1,0.4,0.2c0.4,0.6,4.1,5.7,4.1,8
	C192.5,5053.1,190.5,5055.2,188,5055.2z M188,5043.8c-1.3,1.8-3.5,5.4-3.5,6.9c0,1.9,1.6,3.5,3.5,3.5s3.5-1.6,3.5-3.5
	C191.5,5049.2,189.3,5045.6,188,5043.8z M187.9,5076.6c-4.6,0-8.4-3.2-8.4-7.2v-3c0-0.1,0.1-0.3,0.2-0.4s0.3-0.1,0.4-0.1
	c3.5,0.6,6,2,7.4,4.2c1.8,2.9,0.9,6,0.9,6.2C188.3,5076.5,188.1,5076.6,187.9,5076.6z M187.9,5076.1L187.9,5076.1L187.9,5076.1z
	 M180.5,5067v2.4c0,3.3,3.1,6,7,6.2c0.2-0.9,0.4-3-0.9-5C185.5,5068.8,183.4,5067.6,180.5,5067z M188.1,5076.6
	c-0.2,0-0.4-0.1-0.5-0.4c0-0.1-0.9-3.3,0.9-6.2c1.4-2.2,3.8-3.6,7.4-4.2c0.1,0,0.3,0,0.4,0.1c0.1,0.1,0.2,0.2,0.2,0.4v3
	C196.5,5073.4,192.7,5076.6,188.1,5076.6z M195.5,5067c-2.9,0.6-5,1.8-6.1,3.6c-1.2,2-1,4.1-0.8,5c3.9-0.2,7-2.9,7-6.2V5067z
	 M187.9,5069.1c-4.6,0-8.4-3.2-8.4-7.2v-3c0-0.1,0.1-0.3,0.2-0.4c0.1-0.1,0.3-0.1,0.4-0.1c3.5,0.6,6,2,7.4,4.2
	c1.8,2.9,0.9,6,0.9,6.2C188.3,5068.9,188.1,5069.1,187.9,5069.1z M187.9,5068.6L187.9,5068.6L187.9,5068.6z M180.5,5059.5v2.4
	c0,3.3,3.1,6.1,7,6.2c0.2-0.9,0.4-3-0.9-5C185.5,5061.3,183.4,5060.1,180.5,5059.5z M188.1,5069.1c-0.2,0-0.4-0.1-0.5-0.4
	c0-0.1-0.9-3.3,0.9-6.2c1.4-2.2,3.8-3.6,7.4-4.2c0.1,0,0.3,0,0.4,0.1c0.1,0.1,0.2,0.2,0.2,0.4v3
	C196.5,5065.8,192.7,5069.1,188.1,5069.1z M195.5,5059.5c-2.9,0.6-5,1.8-6.1,3.6c-1.2,2-1,4.1-0.9,5c3.9-0.2,7-2.9,7-6.2V5059.5z
	 M187.9,5061.5c-4.6,0-8.4-3.2-8.4-7.2v-3c0-0.1,0.1-0.3,0.2-0.4c0.1-0.1,0.3-0.1,0.4-0.1c3.5,0.6,6,2,7.4,4.2
	c1.8,2.9,0.9,6,0.9,6.1C188.3,5061.4,188.1,5061.5,187.9,5061.5z M187.9,5061L187.9,5061L187.9,5061z M180.5,5051.9v2.4
	c0,3.3,3.1,6,7,6.2c0.2-0.8,0.4-3-0.8-5C185.5,5053.7,183.4,5052.5,180.5,5051.9z M188.1,5061.5c-0.2,0-0.4-0.1-0.5-0.4
	c0-0.1-0.9-3.3,0.9-6.1c1.4-2.2,3.8-3.6,7.4-4.2c0.1,0,0.3,0,0.4,0.1c0.1,0.1,0.2,0.2,0.2,0.4v3
	C196.5,5058.3,192.7,5061.5,188.1,5061.5z M195.5,5051.9c-2.9,0.6-5,1.8-6.1,3.6c-1.2,2-1,4.1-0.8,5c3.9-0.2,7-2.9,7-6.2V5051.9z
	 M188.5,5081v-4.9c0-0.3-0.2-0.5-0.5-0.5s-0.5,0.2-0.5,0.5v4.9c0,0.3,0.2,0.5,0.5,0.5S188.5,5081.3,188.5,5081z M220,5055.2
	c-2.5,0-4.5-2-4.5-4.5c0-2.3,3.7-7.4,4.1-8c0.1-0.1,0.2-0.2,0.4-0.2l0,0c0.2,0,0.3,0.1,0.4,0.2c0.4,0.6,4.1,5.7,4.1,8
	C224.5,5053.1,222.5,5055.2,220,5055.2z M220,5043.8c-1.3,1.8-3.5,5.4-3.5,6.9c0,1.9,1.6,3.5,3.5,3.5s3.5-1.6,3.5-3.5
	C223.5,5049.2,221.3,5045.6,220,5043.8z M219.9,5076.6c-4.6,0-8.4-3.2-8.4-7.2v-3c0-0.1,0.1-0.3,0.2-0.4s0.3-0.1,0.4-0.1
	c3.5,0.6,6,2,7.4,4.2c1.8,2.9,0.9,6,0.9,6.2C220.3,5076.5,220.1,5076.6,219.9,5076.6z M219.9,5076.1L219.9,5076.1L219.9,5076.1z
	 M212.5,5067v2.4c0,3.3,3.1,6,7,6.2c0.2-0.9,0.4-3-0.9-5C217.5,5068.8,215.4,5067.6,212.5,5067z M220.1,5076.6
	c-0.2,0-0.4-0.1-0.5-0.4c0-0.1-0.9-3.3,0.9-6.2c1.4-2.2,3.8-3.6,7.4-4.2c0.1,0,0.3,0,0.4,0.1c0.1,0.1,0.2,0.2,0.2,0.4v3
	C228.5,5073.4,224.7,5076.6,220.1,5076.6z M227.5,5067c-2.9,0.6-5,1.8-6.1,3.6c-1.2,2-1,4.1-0.8,5c3.9-0.2,7-2.9,7-6.2V5067z
	 M219.9,5069.1c-4.6,0-8.4-3.2-8.4-7.2v-3c0-0.1,0.1-0.3,0.2-0.4c0.1-0.1,0.3-0.1,0.4-0.1c3.5,0.6,6,2,7.4,4.2
	c1.8,2.9,0.9,6,0.9,6.2C220.3,5068.9,220.1,5069.1,219.9,5069.1z M219.9,5068.6L219.9,5068.6L219.9,5068.6z M212.5,5059.5v2.4
	c0,3.3,3.1,6.1,7,6.2c0.2-0.9,0.4-3-0.9-5C217.5,5061.3,215.4,5060.1,212.5,5059.5z M220.1,5069.1c-0.2,0-0.4-0.1-0.5-0.4
	c0-0.1-0.9-3.3,0.9-6.2c1.4-2.2,3.8-3.6,7.4-4.2c0.1,0,0.3,0,0.4,0.1c0.1,0.1,0.2,0.2,0.2,0.4v3
	C228.5,5065.8,224.7,5069.1,220.1,5069.1z M227.5,5059.5c-2.9,0.6-5,1.8-6.1,3.6c-1.2,2-1,4.1-0.9,5c3.9-0.2,7-2.9,7-6.2V5059.5z
	 M219.9,5061.5c-4.6,0-8.4-3.2-8.4-7.2v-3c0-0.1,0.1-0.3,0.2-0.4c0.1-0.1,0.3-0.1,0.4-0.1c3.5,0.6,6,2,7.4,4.2
	c1.8,2.9,0.9,6,0.9,6.1C220.3,5061.4,220.1,5061.5,219.9,5061.5z M219.9,5061L219.9,5061L219.9,5061z M212.5,5051.9v2.4
	c0,3.3,3.1,6,7,6.2c0.2-0.8,0.4-3-0.8-5C217.5,5053.7,215.4,5052.5,212.5,5051.9z M220.1,5061.5c-0.2,0-0.4-0.1-0.5-0.4
	c0-0.1-0.9-3.3,0.9-6.1c1.4-2.2,3.8-3.6,7.4-4.2c0.1,0,0.3,0,0.4,0.1c0.1,0.1,0.2,0.2,0.2,0.4v3
	C228.5,5058.3,224.7,5061.5,220.1,5061.5z M227.5,5051.9c-2.9,0.6-5,1.8-6.1,3.6c-1.2,2-1,4.1-0.8,5c3.9-0.2,7-2.9,7-6.2V5051.9z
	 M220.5,5081v-4.9c0-0.3-0.2-0.5-0.5-0.5s-0.5,0.2-0.5,0.5v4.9c0,0.3,0.2,0.5,0.5,0.5S220.5,5081.3,220.5,5081z M252,5055.2
	c-2.5,0-4.5-2-4.5-4.5c0-2.3,3.7-7.4,4.1-8c0.1-0.1,0.2-0.2,0.4-0.2l0,0c0.2,0,0.3,0.1,0.4,0.2c0.4,0.6,4.1,5.7,4.1,8
	C256.5,5053.1,254.5,5055.2,252,5055.2z M252,5043.8c-1.3,1.8-3.5,5.4-3.5,6.9c0,1.9,1.6,3.5,3.5,3.5s3.5-1.6,3.5-3.5
	C255.5,5049.2,253.3,5045.6,252,5043.8z M251.9,5076.6c-4.6,0-8.4-3.2-8.4-7.2v-3c0-0.1,0.1-0.3,0.2-0.4s0.3-0.1,0.4-0.1
	c3.5,0.6,6,2,7.4,4.2c1.8,2.9,0.9,6,0.9,6.2C252.3,5076.5,252.1,5076.6,251.9,5076.6z M251.9,5076.1L251.9,5076.1L251.9,5076.1z
	 M244.5,5067v2.4c0,3.3,3.1,6,7,6.2c0.2-0.9,0.4-3-0.9-5C249.5,5068.8,247.4,5067.6,244.5,5067z M252.1,5076.6
	c-0.2,0-0.4-0.1-0.5-0.4c0-0.1-0.9-3.3,0.9-6.2c1.4-2.2,3.8-3.6,7.4-4.2c0.1,0,0.3,0,0.4,0.1s0.2,0.2,0.2,0.4v3
	C260.5,5073.4,256.7,5076.6,252.1,5076.6z M259.5,5067c-2.9,0.6-5,1.8-6.1,3.6c-1.2,2-1,4.1-0.8,5c3.9-0.2,7-2.9,7-6.2V5067z
	 M251.9,5069.1c-4.6,0-8.4-3.2-8.4-7.2v-3c0-0.1,0.1-0.3,0.2-0.4c0.1-0.1,0.3-0.1,0.4-0.1c3.5,0.6,6,2,7.4,4.2
	c1.8,2.9,0.9,6,0.9,6.2C252.3,5068.9,252.1,5069.1,251.9,5069.1z M251.9,5068.6L251.9,5068.6L251.9,5068.6z M244.5,5059.5v2.4
	c0,3.3,3.1,6.1,7,6.2c0.2-0.9,0.4-3-0.9-5C249.5,5061.3,247.4,5060.1,244.5,5059.5z M252.1,5069.1c-0.2,0-0.4-0.1-0.5-0.4
	c0-0.1-0.9-3.3,0.9-6.2c1.4-2.2,3.8-3.6,7.4-4.2c0.1,0,0.3,0,0.4,0.1c0.1,0.1,0.2,0.2,0.2,0.4v3
	C260.5,5065.8,256.7,5069.1,252.1,5069.1z M259.5,5059.5c-2.9,0.6-5,1.8-6.1,3.6c-1.2,2-1,4.1-0.9,5c3.9-0.2,7-2.9,7-6.2V5059.5z
	 M251.9,5061.5c-4.6,0-8.4-3.2-8.4-7.2v-3c0-0.1,0.1-0.3,0.2-0.4c0.1-0.1,0.3-0.1,0.4-0.1c3.5,0.6,6,2,7.4,4.2
	c1.8,2.9,0.9,6,0.9,6.1C252.3,5061.4,252.1,5061.5,251.9,5061.5z M251.9,5061L251.9,5061L251.9,5061z M244.5,5051.9v2.4
	c0,3.3,3.1,6,7,6.2c0.2-0.8,0.4-3-0.8-5C249.5,5053.7,247.4,5052.5,244.5,5051.9z M252.1,5061.5c-0.2,0-0.4-0.1-0.5-0.4
	c0-0.1-0.9-3.3,0.9-6.1c1.4-2.2,3.8-3.6,7.4-4.2c0.1,0,0.3,0,0.4,0.1c0.1,0.1,0.2,0.2,0.2,0.4v3
	C260.5,5058.3,256.7,5061.5,252.1,5061.5z M259.5,5051.9c-2.9,0.6-5,1.8-6.1,3.6c-1.2,2-1,4.1-0.8,5c3.9-0.2,7-2.9,7-6.2V5051.9z
	 M252.5,5081v-4.9c0-0.3-0.2-0.5-0.5-0.5s-0.5,0.2-0.5,0.5v4.9c0,0.3,0.2,0.5,0.5,0.5S252.5,5081.3,252.5,5081z"/>
</svg>
